
<svg width="459px" height="459px" viewBox="0 0 459 459" xmlns="http://www.w3.org/2000/svg">
    <g id="Page-1" stroke="none" stroke-width="1" fill="none" fill-rule="evenodd">
        <g id="casestudy" fill="gray" fill-rule="nonzero">
            <path d="M229.5,0 C102.751,0 0,102.751 0,229.5 C0,356.249 102.751,459 229.5,459 C356.249,459 459,356.249 459,229.5 C459,102.751 356.249,0 229.5,0 Z M357.439967,246.616842 L168.876544,374.910524 C162.531146,379.227224 154.316379,379.684188 147.530633,376.097617 C140.744887,372.50936 136.5,365.466056 136.5,357.793796 L136.5,101.206432 C136.5,93.5341721 140.744887,86.4908686 147.530633,82.9026115 C154.316379,79.3160406 162.531146,79.7713175 168.876544,84.089704 L357.439967,212.383386 C363.107127,216.23975 366.5,222.647352 366.5,229.500114 C366.5,236.352876 363.108814,242.760478 357.439967,246.616842 Z" id="Shape"></path>
        </g>
    </g>
</svg>
